<svg height="1118" width="720" xmlns="http://www.w3.org/2000/svg">
<rect height="1118" fill="#555" width="720"></rect>
<text fill="#7f7" font-family="Courier New" font-size="12" xml:space="preserve">
<tspan x="10" y="26"></tspan>
<tspan x="10" y="42">&gt; npmtest-npm-check-updates@0.0.1 test /home/travis/build/npmtest/node-npmtest-npm-check-updates</tspan>
<tspan x="10" y="58">&gt; (set -e; export PORT=$(utility2 shServerPortRandom); utility2 test test.js)</tspan>
<tspan x="10" y="74"></tspan>
<tspan x="10" y="90"></tspan>
<tspan x="10" y="106">[MODE_BUILD=npmTest] - 2017-04-11T06:45:34Z - npm-testing /home/travis/build/npmtest/node-npmtes\</tspan>
<tspan x="10" y="122">t-npm-check-updates</tspan>
<tspan x="10" y="138"></tspan>
<tspan x="10" y="154">merging file:///home/travis/build/npmtest/node-npmtest-npm-check-updates/tmp/build/test-report.j\</tspan>
<tspan x="10" y="170">son to test-report</tspan>
<tspan x="10" y="186">&gt; server listening on http-port 54791</tspan>
<tspan x="10" y="202">[node test-case 1 of 6 passed] - testCase_buildLib_default</tspan>
<tspan x="10" y="218">[node test-case 2 of 6 passed] - testCase_buildReadme_default</tspan>
<tspan x="10" y="234">[node test-case 3 of 6 passed] - testCase_buildTest_default</tspan>
<tspan x="10" y="250"></tspan>
<tspan x="10" y="266">browserTest - created electron entry-page /home/travis/build/npmtest/node-npmtest-npm-check-upda\</tspan>
<tspan x="10" y="282">tes/tmp/electron.15b5bc2aba00.7996ba87400f3.html</tspan>
<tspan x="10" y="298"></tspan>
<tspan x="10" y="314">[node test-case 4 of 6 passed] - testCase_buildApidoc_default</tspan>
<tspan x="10" y="330">Xlib:  extension "RANDR" missing on display ":99.0".</tspan>
<tspan x="10" y="346">merging file:///home/travis/build/npmtest/node-npmtest-npm-check-updates/tmp/build/test-report.j\</tspan>
<tspan x="10" y="362">son to test-report</tspan>
<tspan x="10" y="378">Xlib:  extension "RANDR" missing on display ":99.0".</tspan>
<tspan x="10" y="394">[6156:0411/064537:WARNING:audio_manager.cc(314)] Multiple instances of AudioManager detected</tspan>
<tspan x="10" y="410">[6156:0411/064537:WARNING:audio_manager.cc(275)] Multiple instances of AudioManager detected</tspan>
<tspan x="10" y="426">[6174:0411/064537:ERROR:sandbox_linux.cc(343)] InitializeSandbox() called with multiple threads \</tspan>
<tspan x="10" y="442">in process gpu-process. </tspan>
<tspan x="10" y="458">[6156:0411/064537:ERROR:browser_gpu_channel_host_factory.cc(131)] Failed to create channel.</tspan>
<tspan x="10" y="474"></tspan>
<tspan x="10" y="490">browserTest - opened url http://127.0.0.1:54791?modeTest=1</tspan>
<tspan x="10" y="506"></tspan>
<tspan x="10" y="522">&gt; server listening on http-port 43041</tspan>
<tspan x="10" y="538">[node test-case 5 of 6 passed] - testCase_buildApp_default</tspan>
<tspan x="10" y="554"></tspan>
<tspan x="10" y="570">browserTest - created screenCapture file:///home/travis/build/npmtest/node-npmtest-npm-check-upd\</tspan>
<tspan x="10" y="586">ates/tmp/build/screenCapture.npmTest.browser.%2F.png</tspan>
<tspan x="10" y="602"></tspan>
<tspan x="10" y="618">browserTest - created screenCapture file:///home/travis/build/npmtest/node-npmtest-npm-check-upd\</tspan>
<tspan x="10" y="634">ates/tmp/build/screenCapture.npmTest.browser.%2F.html</tspan>
<tspan x="10" y="650"></tspan>
<tspan x="10" y="666">browserTest - exit-code 0 - http://127.0.0.1:54791?modeTest=1</tspan>
<tspan x="10" y="682"></tspan>
<tspan x="10" y="698"></tspan>
<tspan x="10" y="714">browserTest - merging test-report from /home/travis/build/npmtest/node-npmtest-npm-check-updates\</tspan>
<tspan x="10" y="730">/tmp/test-report.npmTest.browser.%2F.json</tspan>
<tspan x="10" y="746"></tspan>
<tspan x="10" y="762">[node test-case 6 of 6 passed] - testCase_webpage_default</tspan>
<tspan x="10" y="778">merging file:///home/travis/build/npmtest/node-npmtest-npm-check-updates/tmp/build/test-report.j\</tspan>
<tspan x="10" y="794">son to test-report</tspan>
<tspan x="10" y="810"></tspan>
<tspan x="10" y="826">-------------------------------------------------------</tspan>
<tspan x="10" y="842">| test-report - buildCustomOrg - browser - / - Mozilla/5.0 (X11; Linux x86_64) AppleWebKit/537.3\</tspan>
<tspan x="10" y="858">6 (KHTML, like Gecko) Chrome/53.0.2785.143 Electron/1.4.15 Safari/537.36 - 2017-04-11T06:44:36.6\</tspan>
<tspan x="10" y="874">80Z</tspan>
<tspan x="10" y="890">|   76234 ms            0 failed        6 passed      |</tspan>
<tspan x="10" y="906">-------------------------------------------------------</tspan>
<tspan x="10" y="922">| test-report - buildCustomOrg - node - linux v6.10.2 - 2017-04-11T06:44:34.314Z</tspan>
<tspan x="10" y="938">|   16347 ms            0 failed        6 passed      |</tspan>
<tspan x="10" y="954">-------------------------------------------------------</tspan>
<tspan x="10" y="970"></tspan>
<tspan x="10" y="986">created test-report file:///home/travis/build/npmtest/node-npmtest-npm-check-updates/tmp/build/t\</tspan>
<tspan x="10" y="1002">est-report.html</tspan>
<tspan x="10" y="1018"></tspan>
<tspan x="10" y="1034"></tspan>
<tspan x="10" y="1050">npmTest - 0 failed tests</tspan>
<tspan x="10" y="1066"></tspan>
<tspan x="10" y="1082"></tspan>
<tspan x="10" y="1098">[MODE_BUILD=npmTest] - 2017-04-11T06:45:54Z - EXIT_CODE - 0</tspan>
</text>
</svg>
