<svg height="8798" width="720" xmlns="http://www.w3.org/2000/svg">
<rect height="8798" fill="#555" width="720"></rect>
<text fill="#7f7" font-family="Courier New" font-size="12" xml:space="preserve">
<tspan x="10" y="26">63 megabytes installed</tspan>
<tspan x="10" y="42"></tspan>
<tspan x="10" y="58">node_modules</tspan>
<tspan x="10" y="74">└─┬ npm-check-updates@2.11.0 </tspan>
<tspan x="10" y="90">  ├── bluebird@3.5.0 </tspan>
<tspan x="10" y="106">  ├─┬ chalk@1.1.3 </tspan>
<tspan x="10" y="122">  │ ├── ansi-styles@2.2.1 </tspan>
<tspan x="10" y="138">  │ ├── escape-string-regexp@1.0.5 </tspan>
<tspan x="10" y="154">  │ ├─┬ has-ansi@2.0.0 </tspan>
<tspan x="10" y="170">  │ │ └── ansi-regex@2.1.1 </tspan>
<tspan x="10" y="186">  │ ├── strip-ansi@3.0.1 </tspan>
<tspan x="10" y="202">  │ └── supports-color@2.0.0 </tspan>
<tspan x="10" y="218">  ├── cint@8.2.1 </tspan>
<tspan x="10" y="234">  ├─┬ cli-table@0.3.1 </tspan>
<tspan x="10" y="250">  │ └── colors@1.0.3 </tspan>
<tspan x="10" y="266">  ├─┬ commander@2.9.0 </tspan>
<tspan x="10" y="282">  │ └── graceful-readlink@1.0.1 </tspan>
<tspan x="10" y="298">  ├── fast-diff@1.1.1 </tspan>
<tspan x="10" y="314">  ├─┬ find-up@1.1.2 </tspan>
<tspan x="10" y="330">  │ ├── path-exists@2.1.0 </tspan>
<tspan x="10" y="346">  │ └─┬ pinkie-promise@2.0.1 </tspan>
<tspan x="10" y="362">  │   └── pinkie@2.0.4 </tspan>
<tspan x="10" y="378">  ├── get-stdin@5.0.1 </tspan>
<tspan x="10" y="394">  ├─┬ json-parse-helpfulerror@1.0.3 </tspan>
<tspan x="10" y="410">  │ └── jju@1.3.0 </tspan>
<tspan x="10" y="426">  ├── lodash@4.17.4 </tspan>
<tspan x="10" y="442">  ├── node-alias@1.0.4 </tspan>
<tspan x="10" y="458">  ├─┬ npm@3.10.10 </tspan>
<tspan x="10" y="474">  │ ├── abbrev@1.0.9 </tspan>
<tspan x="10" y="490">  │ ├── ansi-regex@2.0.0 </tspan>
<tspan x="10" y="506">  │ ├── ansicolors@0.3.2 </tspan>
<tspan x="10" y="522">  │ ├── ansistyles@0.1.3 </tspan>
<tspan x="10" y="538">  │ ├── aproba@1.0.4 </tspan>
<tspan x="10" y="554">  │ ├── archy@1.0.0 </tspan>
<tspan x="10" y="570">  │ ├── asap@2.0.5 </tspan>
<tspan x="10" y="586">  │ ├── chownr@1.0.1 </tspan>
<tspan x="10" y="602">  │ ├── cmd-shim@2.0.2 </tspan>
<tspan x="10" y="618">  │ ├─┬ columnify@1.5.4 </tspan>
<tspan x="10" y="634">  │ │ └─┬ wcwidth@1.0.0 </tspan>
<tspan x="10" y="650">  │ │   └─┬ defaults@1.0.3 </tspan>
<tspan x="10" y="666">  │ │     └── clone@1.0.2 </tspan>
<tspan x="10" y="682">  │ ├─┬ config-chain@1.1.11 </tspan>
<tspan x="10" y="698">  │ │ └── proto-list@1.2.4 </tspan>
<tspan x="10" y="714">  │ ├── debuglog@1.0.1 </tspan>
<tspan x="10" y="730">  │ ├── dezalgo@1.0.3 </tspan>
<tspan x="10" y="746">  │ ├── editor@1.0.0 </tspan>
<tspan x="10" y="762">  │ ├── fs-vacuum@1.2.9 </tspan>
<tspan x="10" y="778">  │ ├── fs-write-stream-atomic@1.0.8 </tspan>
<tspan x="10" y="794">  │ ├── fstream@1.0.10 </tspan>
<tspan x="10" y="810">  │ ├─┬ fstream-npm@1.2.0 </tspan>
<tspan x="10" y="826">  │ │ └─┬ fstream-ignore@1.0.5 </tspan>
<tspan x="10" y="842">  │ │   └─┬ minimatch@3.0.3 </tspan>
<tspan x="10" y="858">  │ │     └─┬ brace-expansion@1.1.6 </tspan>
<tspan x="10" y="874">  │ │       ├── balanced-match@0.4.2 </tspan>
<tspan x="10" y="890">  │ │       └── concat-map@0.0.1 </tspan>
<tspan x="10" y="906">  │ ├─┬ glob@7.1.0 </tspan>
<tspan x="10" y="922">  │ │ ├── fs.realpath@1.0.0 </tspan>
<tspan x="10" y="938">  │ │ ├─┬ minimatch@3.0.3 </tspan>
<tspan x="10" y="954">  │ │ │ └─┬ brace-expansion@1.1.6 </tspan>
<tspan x="10" y="970">  │ │ │   ├── balanced-match@0.4.2 </tspan>
<tspan x="10" y="986">  │ │ │   └── concat-map@0.0.1 </tspan>
<tspan x="10" y="1002">  │ │ └── path-is-absolute@1.0.1 </tspan>
<tspan x="10" y="1018">  │ ├── graceful-fs@4.1.9 </tspan>
<tspan x="10" y="1034">  │ ├── has-unicode@2.0.1 </tspan>
<tspan x="10" y="1050">  │ ├── hosted-git-info@2.1.5 </tspan>
<tspan x="10" y="1066">  │ ├── iferr@0.1.5 </tspan>
<tspan x="10" y="1082">  │ ├── imurmurhash@0.1.4 </tspan>
<tspan x="10" y="1098">  │ ├── inflight@1.0.5 </tspan>
<tspan x="10" y="1114">  │ ├── inherits@2.0.3 </tspan>
<tspan x="10" y="1130">  │ ├── ini@1.3.4 </tspan>
<tspan x="10" y="1146">  │ ├─┬ init-package-json@1.9.4 </tspan>
<tspan x="10" y="1162">  │ │ ├─┬ glob@6.0.4 </tspan>
<tspan x="10" y="1178">  │ │ │ ├─┬ minimatch@3.0.3 </tspan>
<tspan x="10" y="1194">  │ │ │ │ └─┬ brace-expansion@1.1.6 </tspan>
<tspan x="10" y="1210">  │ │ │ │   ├── balanced-match@0.4.2 </tspan>
<tspan x="10" y="1226">  │ │ │ │   └── concat-map@0.0.1 </tspan>
<tspan x="10" y="1242">  │ │ │ └── path-is-absolute@1.0.0 </tspan>
<tspan x="10" y="1258">  │ │ └── promzard@0.3.0 </tspan>
<tspan x="10" y="1274">  │ ├── lockfile@1.0.2 </tspan>
<tspan x="10" y="1290">  │ ├── lodash._baseindexof@3.1.0 </tspan>
<tspan x="10" y="1306">  │ ├─┬ lodash._baseuniq@4.6.0 </tspan>
<tspan x="10" y="1322">  │ │ ├── lodash._createset@4.0.3 </tspan>
<tspan x="10" y="1338">  │ │ └── lodash._root@3.0.1 </tspan>
<tspan x="10" y="1354">  │ ├── lodash._bindcallback@3.0.1 </tspan>
<tspan x="10" y="1370">  │ ├── lodash._cacheindexof@3.0.2 </tspan>
<tspan x="10" y="1386">  │ ├── lodash._createcache@3.1.2 </tspan>
<tspan x="10" y="1402">  │ ├── lodash._getnative@3.9.1 </tspan>
<tspan x="10" y="1418">  │ ├── lodash.clonedeep@4.5.0 </tspan>
<tspan x="10" y="1434">  │ ├── lodash.restparam@3.6.1 </tspan>
<tspan x="10" y="1450">  │ ├── lodash.union@4.6.0 </tspan>
<tspan x="10" y="1466">  │ ├── lodash.uniq@4.5.0 </tspan>
<tspan x="10" y="1482">  │ ├── lodash.without@4.4.0 </tspan>
<tspan x="10" y="1498">  │ ├─┬ mkdirp@0.5.1 </tspan>
<tspan x="10" y="1514">  │ │ └── minimist@0.0.8 </tspan>
<tspan x="10" y="1530">  │ ├─┬ node-gyp@3.4.0 </tspan>
<tspan x="10" y="1546">  │ │ ├─┬ minimatch@3.0.3 </tspan>
<tspan x="10" y="1562">  │ │ │ └─┬ brace-expansion@1.1.6 </tspan>
<tspan x="10" y="1578">  │ │ │   ├── balanced-match@0.4.2 </tspan>
<tspan x="10" y="1594">  │ │ │   └── concat-map@0.0.1 </tspan>
<tspan x="10" y="1610">  │ │ ├─┬ npmlog@3.1.2 </tspan>
<tspan x="10" y="1626">  │ │ │ ├─┬ are-we-there-yet@1.1.2 </tspan>
<tspan x="10" y="1642">  │ │ │ │ └── delegates@1.0.0 </tspan>
<tspan x="10" y="1658">  │ │ │ ├── console-control-strings@1.1.0 </tspan>
<tspan x="10" y="1674">  │ │ │ ├─┬ gauge@2.6.0 </tspan>
<tspan x="10" y="1690">  │ │ │ │ ├── has-color@0.1.7 </tspan>
<tspan x="10" y="1706">  │ │ │ │ ├── object-assign@4.1.0 </tspan>
<tspan x="10" y="1722">  │ │ │ │ ├── signal-exit@3.0.0 </tspan>
<tspan x="10" y="1738">  │ │ │ │ ├─┬ string-width@1.0.2 </tspan>
<tspan x="10" y="1754">  │ │ │ │ │ ├─┬ code-point-at@1.0.0 </tspan>
<tspan x="10" y="1770">  │ │ │ │ │ │ └── number-is-nan@1.0.0 </tspan>
<tspan x="10" y="1786">  │ │ │ │ │ └─┬ is-fullwidth-code-point@1.0.0 </tspan>
<tspan x="10" y="1802">  │ │ │ │ │   └── number-is-nan@1.0.0 </tspan>
<tspan x="10" y="1818">  │ │ │ │ └── wide-align@1.1.0 </tspan>
<tspan x="10" y="1834">  │ │ │ └── set-blocking@2.0.0 </tspan>
<tspan x="10" y="1850">  │ │ └─┬ path-array@1.0.1 </tspan>
<tspan x="10" y="1866">  │ │   └─┬ array-index@1.0.0 </tspan>
<tspan x="10" y="1882">  │ │     ├─┬ debug@2.2.0 </tspan>
<tspan x="10" y="1898">  │ │     │ └── ms@0.7.1 </tspan>
<tspan x="10" y="1914">  │ │     └─┬ es6-symbol@3.1.0 </tspan>
<tspan x="10" y="1930">  │ │       ├── d@0.1.1 </tspan>
<tspan x="10" y="1946">  │ │       └─┬ es5-ext@0.10.12 </tspan>
<tspan x="10" y="1962">  │ │         └── es6-iterator@2.0.0 </tspan>
<tspan x="10" y="1978">  │ ├── nopt@3.0.6 </tspan>
<tspan x="10" y="1994">  │ ├── normalize-git-url@3.0.2 </tspan>
<tspan x="10" y="2010">  │ ├─┬ normalize-package-data@2.3.5 </tspan>
<tspan x="10" y="2026">  │ │ └─┬ is-builtin-module@1.0.0 </tspan>
<tspan x="10" y="2042">  │ │   └── builtin-modules@1.1.1 </tspan>
<tspan x="10" y="2058">  │ ├── npm-cache-filename@1.0.2 </tspan>
<tspan x="10" y="2074">  │ ├── npm-install-checks@3.0.0 </tspan>
<tspan x="10" y="2090">  │ ├── npm-package-arg@4.2.0 </tspan>
<tspan x="10" y="2106">  │ ├─┬ npm-registry-client@7.2.1 </tspan>
<tspan x="10" y="2122">  │ │ ├─┬ concat-stream@1.5.2 </tspan>
<tspan x="10" y="2138">  │ │ │ ├─┬ readable-stream@2.0.6 </tspan>
<tspan x="10" y="2154">  │ │ │ │ ├── core-util-is@1.0.2 </tspan>
<tspan x="10" y="2170">  │ │ │ │ ├── isarray@1.0.0 </tspan>
<tspan x="10" y="2186">  │ │ │ │ ├── process-nextick-args@1.0.7 </tspan>
<tspan x="10" y="2202">  │ │ │ │ ├── string_decoder@0.10.31 </tspan>
<tspan x="10" y="2218">  │ │ │ │ └── util-deprecate@1.0.2 </tspan>
<tspan x="10" y="2234">  │ │ │ └── typedarray@0.0.6 </tspan>
<tspan x="10" y="2250">  │ │ ├─┬ npmlog@3.1.2 </tspan>
<tspan x="10" y="2266">  │ │ │ ├─┬ are-we-there-yet@1.1.2 </tspan>
<tspan x="10" y="2282">  │ │ │ │ └── delegates@1.0.0 </tspan>
<tspan x="10" y="2298">  │ │ │ ├── console-control-strings@1.1.0 </tspan>
<tspan x="10" y="2314">  │ │ │ ├─┬ gauge@2.6.0 </tspan>
<tspan x="10" y="2330">  │ │ │ │ ├── has-color@0.1.7 </tspan>
<tspan x="10" y="2346">  │ │ │ │ ├── object-assign@4.1.0 </tspan>
<tspan x="10" y="2362">  │ │ │ │ ├── signal-exit@3.0.0 </tspan>
<tspan x="10" y="2378">  │ │ │ │ ├─┬ string-width@1.0.2 </tspan>
<tspan x="10" y="2394">  │ │ │ │ │ ├─┬ code-point-at@1.0.0 </tspan>
<tspan x="10" y="2410">  │ │ │ │ │ │ └── number-is-nan@1.0.0 </tspan>
<tspan x="10" y="2426">  │ │ │ │ │ └─┬ is-fullwidth-code-point@1.0.0 </tspan>
<tspan x="10" y="2442">  │ │ │ │ │   └── number-is-nan@1.0.0 </tspan>
<tspan x="10" y="2458">  │ │ │ │ └── wide-align@1.1.0 </tspan>
<tspan x="10" y="2474">  │ │ │ └── set-blocking@2.0.0 </tspan>
<tspan x="10" y="2490">  │ │ └── retry@0.10.0 </tspan>
<tspan x="10" y="2506">  │ ├── npm-user-validate@0.1.5 </tspan>
<tspan x="10" y="2522">  │ ├─┬ npmlog@4.0.0 </tspan>
<tspan x="10" y="2538">  │ │ ├─┬ are-we-there-yet@1.1.2 </tspan>
<tspan x="10" y="2554">  │ │ │ └── delegates@1.0.0 </tspan>
<tspan x="10" y="2570">  │ │ ├── console-control-strings@1.1.0 </tspan>
<tspan x="10" y="2586">  │ │ ├─┬ gauge@2.6.0 </tspan>
<tspan x="10" y="2602">  │ │ │ ├── has-color@0.1.7 </tspan>
<tspan x="10" y="2618">  │ │ │ ├── object-assign@4.1.0 </tspan>
<tspan x="10" y="2634">  │ │ │ ├── signal-exit@3.0.0 </tspan>
<tspan x="10" y="2650">  │ │ │ ├─┬ string-width@1.0.2 </tspan>
<tspan x="10" y="2666">  │ │ │ │ ├─┬ code-point-at@1.0.0 </tspan>
<tspan x="10" y="2682">  │ │ │ │ │ └── number-is-nan@1.0.0 </tspan>
<tspan x="10" y="2698">  │ │ │ │ └─┬ is-fullwidth-code-point@1.0.0 </tspan>
<tspan x="10" y="2714">  │ │ │ │   └── number-is-nan@1.0.0 </tspan>
<tspan x="10" y="2730">  │ │ │ └── wide-align@1.1.0 </tspan>
<tspan x="10" y="2746">  │ │ └── set-blocking@2.0.0 </tspan>
<tspan x="10" y="2762">  │ ├── once@1.4.0 </tspan>
<tspan x="10" y="2778">  │ ├── opener@1.4.2 </tspan>
<tspan x="10" y="2794">  │ ├─┬ osenv@0.1.3 </tspan>
<tspan x="10" y="2810">  │ │ ├── os-homedir@1.0.1 </tspan>
<tspan x="10" y="2826">  │ │ └── os-tmpdir@1.0.1 </tspan>
<tspan x="10" y="2842">  │ ├── path-is-inside@1.0.2 </tspan>
<tspan x="10" y="2858">  │ ├─┬ read@1.0.7 </tspan>
<tspan x="10" y="2874">  │ │ └── mute-stream@0.0.5 </tspan>
<tspan x="10" y="2890">  │ ├── read-cmd-shim@1.0.1 </tspan>
<tspan x="10" y="2906">  │ ├─┬ read-installed@4.0.3 </tspan>
<tspan x="10" y="2922">  │ │ └── util-extend@1.0.3 </tspan>
<tspan x="10" y="2938">  │ ├─┬ read-package-json@2.0.4 </tspan>
<tspan x="10" y="2954">  │ │ ├─┬ glob@6.0.4 </tspan>
<tspan x="10" y="2970">  │ │ │ ├─┬ minimatch@3.0.3 </tspan>
<tspan x="10" y="2986">  │ │ │ │ └─┬ brace-expansion@1.1.6 </tspan>
<tspan x="10" y="3002">  │ │ │ │   ├── balanced-match@0.4.2 </tspan>
<tspan x="10" y="3018">  │ │ │ │   └── concat-map@0.0.1 </tspan>
<tspan x="10" y="3034">  │ │ │ └── path-is-absolute@1.0.0 </tspan>
<tspan x="10" y="3050">  │ │ └─┬ json-parse-helpfulerror@1.0.3 </tspan>
<tspan x="10" y="3066">  │ │   └── jju@1.3.0 </tspan>
<tspan x="10" y="3082">  │ ├── read-package-tree@5.1.5 </tspan>
<tspan x="10" y="3098">  │ ├─┬ readable-stream@2.1.5 </tspan>
<tspan x="10" y="3114">  │ │ ├── buffer-shims@1.0.0 </tspan>
<tspan x="10" y="3130">  │ │ ├── core-util-is@1.0.2 </tspan>
<tspan x="10" y="3146">  │ │ ├── isarray@1.0.0 </tspan>
<tspan x="10" y="3162">  │ │ ├── process-nextick-args@1.0.7 </tspan>
<tspan x="10" y="3178">  │ │ ├── string_decoder@0.10.31 </tspan>
<tspan x="10" y="3194">  │ │ └── util-deprecate@1.0.2 </tspan>
<tspan x="10" y="3210">  │ ├── readdir-scoped-modules@1.0.2 </tspan>
<tspan x="10" y="3226">  │ ├── realize-package-specifier@3.0.3 </tspan>
<tspan x="10" y="3242">  │ ├─┬ request@2.75.0 </tspan>
<tspan x="10" y="3258">  │ │ ├── aws-sign2@0.6.0 </tspan>
<tspan x="10" y="3274">  │ │ ├── aws4@1.4.1 </tspan>
<tspan x="10" y="3290">  │ │ ├─┬ bl@1.1.2 </tspan>
<tspan x="10" y="3306">  │ │ │ └─┬ readable-stream@2.0.6 </tspan>
<tspan x="10" y="3322">  │ │ │   ├── core-util-is@1.0.2 </tspan>
<tspan x="10" y="3338">  │ │ │   ├── isarray@1.0.0 </tspan>
<tspan x="10" y="3354">  │ │ │   ├── process-nextick-args@1.0.7 </tspan>
<tspan x="10" y="3370">  │ │ │   ├── string_decoder@0.10.31 </tspan>
<tspan x="10" y="3386">  │ │ │   └── util-deprecate@1.0.2 </tspan>
<tspan x="10" y="3402">  │ │ ├── caseless@0.11.0 </tspan>
<tspan x="10" y="3418">  │ │ ├─┬ combined-stream@1.0.5 </tspan>
<tspan x="10" y="3434">  │ │ │ └── delayed-stream@1.0.0 </tspan>
<tspan x="10" y="3450">  │ │ ├── extend@3.0.0 </tspan>
<tspan x="10" y="3466">  │ │ ├── forever-agent@0.6.1 </tspan>
<tspan x="10" y="3482">  │ │ ├─┬ form-data@2.0.0 </tspan>
<tspan x="10" y="3498">  │ │ │ └── asynckit@0.4.0 </tspan>
<tspan x="10" y="3514">  │ │ ├─┬ har-validator@2.0.6 </tspan>
<tspan x="10" y="3530">  │ │ │ ├─┬ chalk@1.1.3 </tspan>
<tspan x="10" y="3546">  │ │ │ │ ├── ansi-styles@2.2.1 </tspan>
<tspan x="10" y="3562">  │ │ │ │ ├── escape-string-regexp@1.0.5 </tspan>
<tspan x="10" y="3578">  │ │ │ │ ├── has-ansi@2.0.0 </tspan>
<tspan x="10" y="3594">  │ │ │ │ └── supports-color@2.0.0 </tspan>
<tspan x="10" y="3610">  │ │ │ ├─┬ commander@2.9.0 </tspan>
<tspan x="10" y="3626">  │ │ │ │ └── graceful-readlink@1.0.1 </tspan>
<tspan x="10" y="3642">  │ │ │ ├─┬ is-my-json-valid@2.15.0 </tspan>
<tspan x="10" y="3658">  │ │ │ │ ├── generate-function@2.0.0 </tspan>
<tspan x="10" y="3674">  │ │ │ │ ├─┬ generate-object-property@1.2.0 </tspan>
<tspan x="10" y="3690">  │ │ │ │ │ └── is-property@1.0.2 </tspan>
<tspan x="10" y="3706">  │ │ │ │ ├── jsonpointer@4.0.0 </tspan>
<tspan x="10" y="3722">  │ │ │ │ └── xtend@4.0.1 </tspan>
<tspan x="10" y="3738">  │ │ │ └─┬ pinkie-promise@2.0.1 </tspan>
<tspan x="10" y="3754">  │ │ │   └── pinkie@2.0.4 </tspan>
<tspan x="10" y="3770">  │ │ ├─┬ hawk@3.1.3 </tspan>
<tspan x="10" y="3786">  │ │ │ ├── boom@2.10.1 </tspan>
<tspan x="10" y="3802">  │ │ │ ├── cryptiles@2.0.5 </tspan>
<tspan x="10" y="3818">  │ │ │ ├── hoek@2.16.3 </tspan>
<tspan x="10" y="3834">  │ │ │ └── sntp@1.0.9 </tspan>
<tspan x="10" y="3850">  │ │ ├─┬ http-signature@1.1.1 </tspan>
<tspan x="10" y="3866">  │ │ │ ├── assert-plus@0.2.0 </tspan>
<tspan x="10" y="3882">  │ │ │ ├─┬ jsprim@1.3.1 </tspan>
<tspan x="10" y="3898">  │ │ │ │ ├── extsprintf@1.0.2 </tspan>
<tspan x="10" y="3914">  │ │ │ │ ├── json-schema@0.2.3 </tspan>
<tspan x="10" y="3930">  │ │ │ │ └── verror@1.3.6 </tspan>
<tspan x="10" y="3946">  │ │ │ └─┬ sshpk@1.10.1 </tspan>
<tspan x="10" y="3962">  │ │ │   ├── asn1@0.2.3 </tspan>
<tspan x="10" y="3978">  │ │ │   ├── assert-plus@1.0.0 </tspan>
<tspan x="10" y="3994">  │ │ │   ├── bcrypt-pbkdf@1.0.0 </tspan>
<tspan x="10" y="4010">  │ │ │   ├── dashdash@1.14.0 </tspan>
<tspan x="10" y="4026">  │ │ │   ├── ecc-jsbn@0.1.1 </tspan>
<tspan x="10" y="4042">  │ │ │   ├── getpass@0.1.6 </tspan>
<tspan x="10" y="4058">  │ │ │   ├── jodid25519@1.0.2 </tspan>
<tspan x="10" y="4074">  │ │ │   ├── jsbn@0.1.0 </tspan>
<tspan x="10" y="4090">  │ │ │   └── tweetnacl@0.14.3 </tspan>
<tspan x="10" y="4106">  │ │ ├── is-typedarray@1.0.0 </tspan>
<tspan x="10" y="4122">  │ │ ├── isstream@0.1.2 </tspan>
<tspan x="10" y="4138">  │ │ ├── json-stringify-safe@5.0.1 </tspan>
<tspan x="10" y="4154">  │ │ ├─┬ mime-types@2.1.12 </tspan>
<tspan x="10" y="4170">  │ │ │ └── mime-db@1.24.0 </tspan>
<tspan x="10" y="4186">  │ │ ├── node-uuid@1.4.7 </tspan>
<tspan x="10" y="4202">  │ │ ├── oauth-sign@0.8.2 </tspan>
<tspan x="10" y="4218">  │ │ ├── qs@6.2.1 </tspan>
<tspan x="10" y="4234">  │ │ ├── stringstream@0.0.5 </tspan>
<tspan x="10" y="4250">  │ │ ├── tough-cookie@2.3.1 </tspan>
<tspan x="10" y="4266">  │ │ └── tunnel-agent@0.4.3 </tspan>
<tspan x="10" y="4282">  │ ├── retry@0.10.0 </tspan>
<tspan x="10" y="4298">  │ ├── rimraf@2.5.4 </tspan>
<tspan x="10" y="4314">  │ ├── semver@5.3.0 </tspan>
<tspan x="10" y="4330">  │ ├── sha@2.0.1 </tspan>
<tspan x="10" y="4346">  │ ├── slide@1.1.6 </tspan>
<tspan x="10" y="4362">  │ ├── sorted-object@2.0.1 </tspan>
<tspan x="10" y="4378">  │ ├── strip-ansi@3.0.1 </tspan>
<tspan x="10" y="4394">  │ ├─┬ tar@2.2.1 </tspan>
<tspan x="10" y="4410">  │ │ └── block-stream@0.0.8 </tspan>
<tspan x="10" y="4426">  │ ├── text-table@0.2.0 </tspan>
<tspan x="10" y="4442">  │ ├── uid-number@0.0.6 </tspan>
<tspan x="10" y="4458">  │ ├── umask@1.1.0 </tspan>
<tspan x="10" y="4474">  │ ├─┬ unique-filename@1.1.0 </tspan>
<tspan x="10" y="4490">  │ │ └── unique-slug@2.0.0 </tspan>
<tspan x="10" y="4506">  │ ├── unpipe@1.0.0 </tspan>
<tspan x="10" y="4522">  │ ├─┬ validate-npm-package-license@3.0.1 </tspan>
<tspan x="10" y="4538">  │ │ ├─┬ spdx-correct@1.0.2 </tspan>
<tspan x="10" y="4554">  │ │ │ └── spdx-license-ids@1.2.0 </tspan>
<tspan x="10" y="4570">  │ │ └─┬ spdx-expression-parse@1.0.2 </tspan>
<tspan x="10" y="4586">  │ │   ├── spdx-exceptions@1.0.4 </tspan>
<tspan x="10" y="4602">  │ │   └── spdx-license-ids@1.2.0 </tspan>
<tspan x="10" y="4618">  │ ├─┬ validate-npm-package-name@2.2.2 </tspan>
<tspan x="10" y="4634">  │ │ └── builtins@0.0.7 </tspan>
<tspan x="10" y="4650">  │ ├─┬ which@1.2.11 </tspan>
<tspan x="10" y="4666">  │ │ └── isexe@1.1.2 </tspan>
<tspan x="10" y="4682">  │ ├── wrappy@1.0.2 </tspan>
<tspan x="10" y="4698">  │ └── write-file-atomic@1.2.0 </tspan>
<tspan x="10" y="4714">  ├─┬ npmi@2.0.1 </tspan>
<tspan x="10" y="4730">  │ └── semver@4.3.6 </tspan>
<tspan x="10" y="4746">  ├── require-dir@0.3.1 </tspan>
<tspan x="10" y="4762">  ├── semver@5.3.0 </tspan>
<tspan x="10" y="4778">  ├── semver-utils@1.1.1 </tspan>
<tspan x="10" y="4794">  ├─┬ snyk@1.29.0 </tspan>
<tspan x="10" y="4810">  │ ├── abbrev@1.1.0 </tspan>
<tspan x="10" y="4826">  │ ├── ansi-escapes@1.4.0 </tspan>
<tspan x="10" y="4842">  │ ├─┬ configstore@1.4.0 </tspan>
<tspan x="10" y="4858">  │ │ ├── graceful-fs@4.1.11 </tspan>
<tspan x="10" y="4874">  │ │ ├─┬ mkdirp@0.5.1 </tspan>
<tspan x="10" y="4890">  │ │ │ └── minimist@0.0.8 </tspan>
<tspan x="10" y="4906">  │ │ ├── object-assign@4.1.1 </tspan>
<tspan x="10" y="4922">  │ │ ├── os-tmpdir@1.0.2 </tspan>
<tspan x="10" y="4938">  │ │ ├── osenv@0.1.4 </tspan>
<tspan x="10" y="4954">  │ │ ├── uuid@2.0.3 </tspan>
<tspan x="10" y="4970">  │ │ └─┬ write-file-atomic@1.3.3 </tspan>
<tspan x="10" y="4986">  │ │   ├── imurmurhash@0.1.4 </tspan>
<tspan x="10" y="5002">  │ │   └── slide@1.1.6 </tspan>
<tspan x="10" y="5018">  │ ├─┬ debug@2.6.4 </tspan>
<tspan x="10" y="5034">  │ │ └── ms@0.7.3 </tspan>
<tspan x="10" y="5050">  │ ├── es6-promise@3.3.1 </tspan>
<tspan x="10" y="5066">  │ ├─┬ hasbin@1.2.3 </tspan>
<tspan x="10" y="5082">  │ │ └── async@1.5.2 </tspan>
<tspan x="10" y="5098">  │ ├─┬ inquirer@1.0.3 </tspan>
<tspan x="10" y="5114">  │ │ ├─┬ cli-cursor@1.0.2 </tspan>
<tspan x="10" y="5130">  │ │ │ └─┬ restore-cursor@1.0.1 </tspan>
<tspan x="10" y="5146">  │ │ │   ├── exit-hook@1.1.1 </tspan>
<tspan x="10" y="5162">  │ │ │   └── onetime@1.1.0 </tspan>
<tspan x="10" y="5178">  │ │ ├── cli-width@2.1.0 </tspan>
<tspan x="10" y="5194">  │ │ ├── figures@1.7.0 </tspan>
<tspan x="10" y="5210">  │ │ ├── mute-stream@0.0.6 </tspan>
<tspan x="10" y="5226">  │ │ ├─┬ run-async@2.3.0 </tspan>
<tspan x="10" y="5242">  │ │ │ └── is-promise@2.1.0 </tspan>
<tspan x="10" y="5258">  │ │ ├── rx@4.1.0 </tspan>
<tspan x="10" y="5274">  │ │ ├─┬ string-width@1.0.2 </tspan>
<tspan x="10" y="5290">  │ │ │ ├── code-point-at@1.1.0 </tspan>
<tspan x="10" y="5306">  │ │ │ └─┬ is-fullwidth-code-point@1.0.0 </tspan>
<tspan x="10" y="5322">  │ │ │   └── number-is-nan@1.0.1 </tspan>
<tspan x="10" y="5338">  │ │ └── through@2.3.8 </tspan>
<tspan x="10" y="5354">  │ ├── open@0.0.5 </tspan>
<tspan x="10" y="5370">  │ ├─┬ os-name@1.0.3 </tspan>
<tspan x="10" y="5386">  │ │ ├─┬ osx-release@1.1.0 </tspan>
<tspan x="10" y="5402">  │ │ │ └── minimist@1.2.0 </tspan>
<tspan x="10" y="5418">  │ │ └── win-release@1.1.1 </tspan>
<tspan x="10" y="5434">  │ ├─┬ request@2.81.0 </tspan>
<tspan x="10" y="5450">  │ │ ├── aws-sign2@0.6.0 </tspan>
<tspan x="10" y="5466">  │ │ ├── aws4@1.6.0 </tspan>
<tspan x="10" y="5482">  │ │ ├── caseless@0.12.0 </tspan>
<tspan x="10" y="5498">  │ │ ├─┬ combined-stream@1.0.5 </tspan>
<tspan x="10" y="5514">  │ │ │ └── delayed-stream@1.0.0 </tspan>
<tspan x="10" y="5530">  │ │ ├── extend@3.0.0 </tspan>
<tspan x="10" y="5546">  │ │ ├── forever-agent@0.6.1 </tspan>
<tspan x="10" y="5562">  │ │ ├─┬ form-data@2.1.4 </tspan>
<tspan x="10" y="5578">  │ │ │ └── asynckit@0.4.0 </tspan>
<tspan x="10" y="5594">  │ │ ├─┬ har-validator@4.2.1 </tspan>
<tspan x="10" y="5610">  │ │ │ ├─┬ ajv@4.11.7 </tspan>
<tspan x="10" y="5626">  │ │ │ │ ├── co@4.6.0 </tspan>
<tspan x="10" y="5642">  │ │ │ │ └─┬ json-stable-stringify@1.0.1 </tspan>
<tspan x="10" y="5658">  │ │ │ │   └── jsonify@0.0.0 </tspan>
<tspan x="10" y="5674">  │ │ │ └── har-schema@1.0.5 </tspan>
<tspan x="10" y="5690">  │ │ ├─┬ hawk@3.1.3 </tspan>
<tspan x="10" y="5706">  │ │ │ ├── boom@2.10.1 </tspan>
<tspan x="10" y="5722">  │ │ │ ├── cryptiles@2.0.5 </tspan>
<tspan x="10" y="5738">  │ │ │ ├── hoek@2.16.3 </tspan>
<tspan x="10" y="5754">  │ │ │ └── sntp@1.0.9 </tspan>
<tspan x="10" y="5770">  │ │ ├─┬ http-signature@1.1.1 </tspan>
<tspan x="10" y="5786">  │ │ │ ├── assert-plus@0.2.0 </tspan>
<tspan x="10" y="5802">  │ │ │ ├─┬ jsprim@1.4.0 </tspan>
<tspan x="10" y="5818">  │ │ │ │ ├── assert-plus@1.0.0 </tspan>
<tspan x="10" y="5834">  │ │ │ │ ├── extsprintf@1.0.2 </tspan>
<tspan x="10" y="5850">  │ │ │ │ ├── json-schema@0.2.3 </tspan>
<tspan x="10" y="5866">  │ │ │ │ └── verror@1.3.6 </tspan>
<tspan x="10" y="5882">  │ │ │ └─┬ sshpk@1.13.0 </tspan>
<tspan x="10" y="5898">  │ │ │   ├── asn1@0.2.3 </tspan>
<tspan x="10" y="5914">  │ │ │   ├── assert-plus@1.0.0 </tspan>
<tspan x="10" y="5930">  │ │ │   ├── bcrypt-pbkdf@1.0.1 </tspan>
<tspan x="10" y="5946">  │ │ │   ├─┬ dashdash@1.14.1 </tspan>
<tspan x="10" y="5962">  │ │ │   │ └── assert-plus@1.0.0 </tspan>
<tspan x="10" y="5978">  │ │ │   ├── ecc-jsbn@0.1.1 </tspan>
<tspan x="10" y="5994">  │ │ │   ├─┬ getpass@0.1.6 </tspan>
<tspan x="10" y="6010">  │ │ │   │ └── assert-plus@1.0.0 </tspan>
<tspan x="10" y="6026">  │ │ │   ├── jodid25519@1.0.2 </tspan>
<tspan x="10" y="6042">  │ │ │   ├── jsbn@0.1.1 </tspan>
<tspan x="10" y="6058">  │ │ │   └── tweetnacl@0.14.5 </tspan>
<tspan x="10" y="6074">  │ │ ├── is-typedarray@1.0.0 </tspan>
<tspan x="10" y="6090">  │ │ ├── isstream@0.1.2 </tspan>
<tspan x="10" y="6106">  │ │ ├── json-stringify-safe@5.0.1 </tspan>
<tspan x="10" y="6122">  │ │ ├─┬ mime-types@2.1.15 </tspan>
<tspan x="10" y="6138">  │ │ │ └── mime-db@1.27.0 </tspan>
<tspan x="10" y="6154">  │ │ ├── oauth-sign@0.8.2 </tspan>
<tspan x="10" y="6170">  │ │ ├── performance-now@0.2.0 </tspan>
<tspan x="10" y="6186">  │ │ ├── qs@6.4.0 </tspan>
<tspan x="10" y="6202">  │ │ ├── safe-buffer@5.0.1 </tspan>
<tspan x="10" y="6218">  │ │ ├── stringstream@0.0.5 </tspan>
<tspan x="10" y="6234">  │ │ ├─┬ tough-cookie@2.3.2 </tspan>
<tspan x="10" y="6250">  │ │ │ └── punycode@1.4.1 </tspan>
<tspan x="10" y="6266">  │ │ └── tunnel-agent@0.6.0 </tspan>
<tspan x="10" y="6282">  │ ├─┬ snyk-config@1.0.1 </tspan>
<tspan x="10" y="6298">  │ │ ├─┬ nconf@0.7.2 </tspan>
<tspan x="10" y="6314">  │ │ │ ├── async@0.9.2 </tspan>
<tspan x="10" y="6330">  │ │ │ ├── ini@1.3.4 </tspan>
<tspan x="10" y="6346">  │ │ │ └─┬ yargs@3.15.0 </tspan>
<tspan x="10" y="6362">  │ │ │   ├── camelcase@1.2.1 </tspan>
<tspan x="10" y="6378">  │ │ │   ├─┬ cliui@2.1.0 </tspan>
<tspan x="10" y="6394">  │ │ │   │ ├─┬ center-align@0.1.3 </tspan>
<tspan x="10" y="6410">  │ │ │   │ │ ├─┬ align-text@0.1.4 </tspan>
<tspan x="10" y="6426">  │ │ │   │ │ │ ├─┬ kind-of@3.2.0 </tspan>
<tspan x="10" y="6442">  │ │ │   │ │ │ │ └── is-buffer@1.1.5 </tspan>
<tspan x="10" y="6458">  │ │ │   │ │ │ ├── longest@1.0.1 </tspan>
<tspan x="10" y="6474">  │ │ │   │ │ │ └── repeat-string@1.6.1 </tspan>
<tspan x="10" y="6490">  │ │ │   │ │ └── lazy-cache@1.0.4 </tspan>
<tspan x="10" y="6506">  │ │ │   │ ├── right-align@0.1.3 </tspan>
<tspan x="10" y="6522">  │ │ │   │ └── wordwrap@0.0.2 </tspan>
<tspan x="10" y="6538">  │ │ │   ├── decamelize@1.2.0 </tspan>
<tspan x="10" y="6554">  │ │ │   └── window-size@0.1.4 </tspan>
<tspan x="10" y="6570">  │ │ └── path-is-absolute@1.0.1 </tspan>
<tspan x="10" y="6586">  │ ├─┬ snyk-module@1.8.1 </tspan>
<tspan x="10" y="6602">  │ │ └── hosted-git-info@2.4.2 </tspan>
<tspan x="10" y="6618">  │ ├─┬ snyk-policy@1.7.1 </tspan>
<tspan x="10" y="6634">  │ │ ├─┬ js-yaml@3.8.3 </tspan>
<tspan x="10" y="6650">  │ │ │ ├─┬ argparse@1.0.9 </tspan>
<tspan x="10" y="6666">  │ │ │ │ └── sprintf-js@1.0.3 </tspan>
<tspan x="10" y="6682">  │ │ │ └── esprima@3.1.3 </tspan>
<tspan x="10" y="6698">  │ │ └── lodash.clonedeep@4.5.0 </tspan>
<tspan x="10" y="6714">  │ ├─┬ snyk-recursive-readdir@2.0.0 </tspan>
<tspan x="10" y="6730">  │ │ └─┬ minimatch@3.0.2 </tspan>
<tspan x="10" y="6746">  │ │   └─┬ brace-expansion@1.1.7 </tspan>
<tspan x="10" y="6762">  │ │     ├── balanced-match@0.4.2 </tspan>
<tspan x="10" y="6778">  │ │     └── concat-map@0.0.1 </tspan>
<tspan x="10" y="6794">  │ ├── snyk-resolve@1.0.0 </tspan>
<tspan x="10" y="6810">  │ ├─┬ snyk-resolve-deps@1.7.0 </tspan>
<tspan x="10" y="6826">  │ │ ├── ansicolors@0.3.2 </tspan>
<tspan x="10" y="6842">  │ │ ├─┬ clite@0.3.0 </tspan>
<tspan x="10" y="6858">  │ │ │ ├── lodash.defaults@4.2.0 </tspan>
<tspan x="10" y="6874">  │ │ │ ├── lodash.defaultsdeep@4.6.0 </tspan>
<tspan x="10" y="6890">  │ │ │ ├── lodash.mergewith@4.6.0 </tspan>
<tspan x="10" y="6906">  │ │ │ ├─┬ update-notifier@0.6.3 </tspan>
<tspan x="10" y="6922">  │ │ │ │ ├── boxen@0.3.1 </tspan>
<tspan x="10" y="6938">  │ │ │ │ └─┬ configstore@2.1.0 </tspan>
<tspan x="10" y="6954">  │ │ │ │   └── uuid@2.0.3 </tspan>
<tspan x="10" y="6970">  │ │ │ └─┬ yargs@4.8.1 </tspan>
<tspan x="10" y="6986">  │ │ │   ├─┬ cliui@3.2.0 </tspan>
<tspan x="10" y="7002">  │ │ │   │ └── wrap-ansi@2.1.0 </tspan>
<tspan x="10" y="7018">  │ │ │   ├── get-caller-file@1.0.2 </tspan>
<tspan x="10" y="7034">  │ │ │   ├── lodash.assign@4.2.0 </tspan>
<tspan x="10" y="7050">  │ │ │   ├─┬ os-locale@1.4.0 </tspan>
<tspan x="10" y="7066">  │ │ │   │ └─┬ lcid@1.0.0 </tspan>
<tspan x="10" y="7082">  │ │ │   │   └── invert-kv@1.0.0 </tspan>
<tspan x="10" y="7098">  │ │ │   ├─┬ read-pkg-up@1.0.1 </tspan>
<tspan x="10" y="7114">  │ │ │   │ └─┬ read-pkg@1.1.0 </tspan>
<tspan x="10" y="7130">  │ │ │   │   ├─┬ load-json-file@1.1.0 </tspan>
<tspan x="10" y="7146">  │ │ │   │   │ ├── pify@2.3.0 </tspan>
<tspan x="10" y="7162">  │ │ │   │   │ └─┬ strip-bom@2.0.0 </tspan>
<tspan x="10" y="7178">  │ │ │   │   │   └── is-utf8@0.2.1 </tspan>
<tspan x="10" y="7194">  │ │ │   │   ├─┬ normalize-package-data@2.3.8 </tspan>
<tspan x="10" y="7210">  │ │ │   │   │ ├─┬ is-builtin-module@1.0.0 </tspan>
<tspan x="10" y="7226">  │ │ │   │   │ │ └── builtin-modules@1.1.1 </tspan>
<tspan x="10" y="7242">  │ │ │   │   │ └─┬ validate-npm-package-license@3.0.1 </tspan>
<tspan x="10" y="7258">  │ │ │   │   │   ├─┬ spdx-correct@1.0.2 </tspan>
<tspan x="10" y="7274">  │ │ │   │   │   │ └── spdx-license-ids@1.2.2 </tspan>
<tspan x="10" y="7290">  │ │ │   │   │   └── spdx-expression-parse@1.0.4 </tspan>
<tspan x="10" y="7306">  │ │ │   │   └── path-type@1.1.0 </tspan>
<tspan x="10" y="7322">  │ │ │   ├── require-directory@2.1.1 </tspan>
<tspan x="10" y="7338">  │ │ │   ├── require-main-filename@1.0.1 </tspan>
<tspan x="10" y="7354">  │ │ │   ├── set-blocking@2.0.0 </tspan>
<tspan x="10" y="7370">  │ │ │   ├── which-module@1.0.0 </tspan>
<tspan x="10" y="7386">  │ │ │   ├── window-size@0.2.0 </tspan>
<tspan x="10" y="7402">  │ │ │   ├── y18n@3.2.1 </tspan>
<tspan x="10" y="7418">  │ │ │   └─┬ yargs-parser@2.4.1 </tspan>
<tspan x="10" y="7434">  │ │ │     └── camelcase@3.0.0 </tspan>
<tspan x="10" y="7450">  │ │ ├─┬ lru-cache@4.0.2 </tspan>
<tspan x="10" y="7466">  │ │ │ ├── pseudomap@1.0.2 </tspan>
<tspan x="10" y="7482">  │ │ │ └── yallist@2.1.2 </tspan>
<tspan x="10" y="7498">  │ │ └── minimist@1.2.0 </tspan>
<tspan x="10" y="7514">  │ ├─┬ snyk-tree@1.0.0 </tspan>
<tspan x="10" y="7530">  │ │ └── archy@1.0.0 </tspan>
<tspan x="10" y="7546">  │ ├── snyk-try-require@1.2.0 </tspan>
<tspan x="10" y="7562">  │ ├─┬ tempfile@1.1.1 </tspan>
<tspan x="10" y="7578">  │ │ └── uuid@2.0.3 </tspan>
<tspan x="10" y="7594">  │ ├─┬ then-fs@2.0.0 </tspan>
<tspan x="10" y="7610">  │ │ └─┬ promise@7.1.1 </tspan>
<tspan x="10" y="7626">  │ │   └── asap@2.0.5 </tspan>
<tspan x="10" y="7642">  │ ├── undefsafe@0.0.3 </tspan>
<tspan x="10" y="7658">  │ ├─┬ update-notifier@0.5.0 </tspan>
<tspan x="10" y="7674">  │ │ ├─┬ latest-version@1.0.1 </tspan>
<tspan x="10" y="7690">  │ │ │ └─┬ package-json@1.2.0 </tspan>
<tspan x="10" y="7706">  │ │ │   └─┬ got@3.3.1 </tspan>
<tspan x="10" y="7722">  │ │ │     ├─┬ duplexify@3.5.0 </tspan>
<tspan x="10" y="7738">  │ │ │     │ ├─┬ end-of-stream@1.0.0 </tspan>
<tspan x="10" y="7754">  │ │ │     │ │ └─┬ once@1.3.3 </tspan>
<tspan x="10" y="7770">  │ │ │     │ │   └── wrappy@1.0.2 </tspan>
<tspan x="10" y="7786">  │ │ │     │ └── stream-shift@1.0.0 </tspan>
<tspan x="10" y="7802">  │ │ │     ├── infinity-agent@2.0.3 </tspan>
<tspan x="10" y="7818">  │ │ │     ├── nested-error-stacks@1.0.2 </tspan>
<tspan x="10" y="7834">  │ │ │     ├── object-assign@3.0.0 </tspan>
<tspan x="10" y="7850">  │ │ │     ├── prepend-http@1.0.4 </tspan>
<tspan x="10" y="7866">  │ │ │     └── timed-out@2.0.0 </tspan>
<tspan x="10" y="7882">  │ │ ├─┬ repeating@1.1.3 </tspan>
<tspan x="10" y="7898">  │ │ │ └── is-finite@1.0.2 </tspan>
<tspan x="10" y="7914">  │ │ └── string-length@1.0.1 </tspan>
<tspan x="10" y="7930">  │ ├─┬ url@0.11.0 </tspan>
<tspan x="10" y="7946">  │ │ ├── punycode@1.3.2 </tspan>
<tspan x="10" y="7962">  │ │ └── querystring@0.2.0 </tspan>
<tspan x="10" y="7978">  │ └── uuid@3.0.1 </tspan>
<tspan x="10" y="7994">  ├── spawn-please@0.2.0 </tspan>
<tspan x="10" y="8010">  └─┬ update-notifier@1.0.3 </tspan>
<tspan x="10" y="8026">    ├─┬ boxen@0.6.0 </tspan>
<tspan x="10" y="8042">    │ ├── ansi-align@1.1.0 </tspan>
<tspan x="10" y="8058">    │ ├── camelcase@2.1.1 </tspan>
<tspan x="10" y="8074">    │ ├── cli-boxes@1.0.0 </tspan>
<tspan x="10" y="8090">    │ ├── filled-array@1.1.0 </tspan>
<tspan x="10" y="8106">    │ ├── repeating@2.0.1 </tspan>
<tspan x="10" y="8122">    │ └── widest-line@1.0.0 </tspan>
<tspan x="10" y="8138">    ├─┬ configstore@2.1.0 </tspan>
<tspan x="10" y="8154">    │ ├─┬ dot-prop@3.0.0 </tspan>
<tspan x="10" y="8170">    │ │ └── is-obj@1.0.1 </tspan>
<tspan x="10" y="8186">    │ └── uuid@2.0.3 </tspan>
<tspan x="10" y="8202">    ├── is-npm@1.0.0 </tspan>
<tspan x="10" y="8218">    ├─┬ latest-version@2.0.0 </tspan>
<tspan x="10" y="8234">    │ └─┬ package-json@2.4.0 </tspan>
<tspan x="10" y="8250">    │   ├─┬ got@5.7.1 </tspan>
<tspan x="10" y="8266">    │   │ ├─┬ create-error-class@3.0.2 </tspan>
<tspan x="10" y="8282">    │   │ │ └── capture-stack-trace@1.0.0 </tspan>
<tspan x="10" y="8298">    │   │ ├── duplexer2@0.1.4 </tspan>
<tspan x="10" y="8314">    │   │ ├── is-redirect@1.0.0 </tspan>
<tspan x="10" y="8330">    │   │ ├── is-retry-allowed@1.1.0 </tspan>
<tspan x="10" y="8346">    │   │ ├── is-stream@1.1.0 </tspan>
<tspan x="10" y="8362">    │   │ ├── lowercase-keys@1.0.0 </tspan>
<tspan x="10" y="8378">    │   │ ├── node-status-codes@1.0.0 </tspan>
<tspan x="10" y="8394">    │   │ ├─┬ parse-json@2.2.0 </tspan>
<tspan x="10" y="8410">    │   │ │ └─┬ error-ex@1.3.1 </tspan>
<tspan x="10" y="8426">    │   │ │   └── is-arrayish@0.2.1 </tspan>
<tspan x="10" y="8442">    │   │ ├── read-all-stream@3.1.0 </tspan>
<tspan x="10" y="8458">    │   │ ├─┬ readable-stream@2.2.9 </tspan>
<tspan x="10" y="8474">    │   │ │ ├── buffer-shims@1.0.0 </tspan>
<tspan x="10" y="8490">    │   │ │ ├── core-util-is@1.0.2 </tspan>
<tspan x="10" y="8506">    │   │ │ ├── inherits@2.0.3 </tspan>
<tspan x="10" y="8522">    │   │ │ ├── isarray@1.0.0 </tspan>
<tspan x="10" y="8538">    │   │ │ ├── process-nextick-args@1.0.7 </tspan>
<tspan x="10" y="8554">    │   │ │ ├── string_decoder@1.0.0 </tspan>
<tspan x="10" y="8570">    │   │ │ └── util-deprecate@1.0.2 </tspan>
<tspan x="10" y="8586">    │   │ ├── timed-out@3.1.3 </tspan>
<tspan x="10" y="8602">    │   │ ├── unzip-response@1.0.2 </tspan>
<tspan x="10" y="8618">    │   │ └── url-parse-lax@1.0.0 </tspan>
<tspan x="10" y="8634">    │   ├─┬ registry-auth-token@3.3.0 </tspan>
<tspan x="10" y="8650">    │   │ └─┬ rc@1.2.1 </tspan>
<tspan x="10" y="8666">    │   │   ├── deep-extend@0.4.1 </tspan>
<tspan x="10" y="8682">    │   │   ├── minimist@1.2.0 </tspan>
<tspan x="10" y="8698">    │   │   └── strip-json-comments@2.0.1 </tspan>
<tspan x="10" y="8714">    │   └── registry-url@3.1.0 </tspan>
<tspan x="10" y="8730">    ├── lazy-req@1.1.0 </tspan>
<tspan x="10" y="8746">    ├── semver-diff@2.1.0 </tspan>
<tspan x="10" y="8762">    └─┬ xdg-basedir@2.0.0 </tspan>
<tspan x="10" y="8778">      └── os-homedir@1.0.2</tspan>
</text>
</svg>
